<svg width="180" height="270" viewBox="0 0 180 270" fill="none" xmlns="http://www.w3.org/2000/svg">
<path d="M107.5 102.5C107.5 121.868 101.486 139.384 91.7868 152.047C82.0876 164.71 68.7235 172.5 54 172.5C39.2765 172.5 25.9124 164.71 16.2132 152.047C6.5136 139.384 0.5 121.868 0.5 102.5C0.5 83.1322 6.5136 65.6163 16.2132 52.953C25.9124 40.2902 39.2765 32.5 54 32.5C68.7235 32.5 82.0876 40.2902 91.7868 52.953C101.486 65.6163 107.5 83.1322 107.5 102.5Z" fill="#C45454" stroke="black"/>
<path d="M179.5 70.5C179.5 89.8678 173.486 107.384 163.787 120.047C154.088 132.71 140.724 140.5 126 140.5C111.276 140.5 97.9124 132.71 88.2132 120.047C78.5136 107.384 72.5 89.8678 72.5 70.5C72.5 51.1322 78.5136 33.6163 88.2132 20.953C97.9124 8.29017 111.276 0.5 126 0.5C140.724 0.5 154.088 8.29017 163.787 20.953C173.486 33.6163 179.5 51.1322 179.5 70.5Z" fill="#C45454" stroke="black"/>
<line x1="54.4058" y1="172.708" x2="108.406" y2="247.708" stroke="black"/>
<line x1="134.486" y1="141.118" x2="108.486" y2="248.118" stroke="black"/>
<line x1="108.488" y1="247.889" x2="113.488" y2="269.889" stroke="black"/>
<path d="M9.08 101.456C8.92 101.456 8.84 101.328 8.84 101.072C8.84 100.848 8.92 100.576 9.08 100.256C9.24 99.936 9.448 99.68 9.704 99.488C9.96 99.328 10.232 99.152 10.52 98.96C10.776 98.8 11.032 98.656 11.288 98.528C11.256 98.464 11.24 98.352 11.24 98.192C11.24 97.936 11.32 97.808 11.48 97.808C11.576 97.808 11.72 97.92 11.912 98.144C14.408 96.768 16.84 95.76 19.208 95.12V94.976C19.208 94.08 18.968 93.248 18.488 92.48C18.04 91.712 17.464 90.928 16.76 90.128C16.056 89.328 15.336 88.448 14.6 87.488C13.896 86.528 13.256 85.44 12.68 84.224C12.136 82.976 11.784 81.52 11.624 79.856C11.592 79.664 11.576 79.472 11.576 79.28C11.576 79.088 11.576 78.896 11.576 78.704C11.576 76.656 12.04 74.8 12.968 73.136C13.896 71.472 15.096 70.048 16.568 68.864C18.072 67.648 19.688 66.704 21.416 66.032C22.792 65.488 24.36 65.216 26.12 65.216C26.76 65.216 27.368 65.264 27.944 65.36C29.64 65.68 30.824 66.24 31.496 67.04C32.168 67.84 32.504 68.64 32.504 69.44C32.504 70.048 32.344 70.592 32.024 71.072C31.704 71.552 31.48 71.792 31.352 71.792C31.256 71.792 31.208 71.728 31.208 71.6C31.208 71.536 31.224 71.44 31.256 71.312C31.32 71.152 31.368 70.992 31.4 70.832C31.496 70.576 31.56 70.352 31.592 70.16C31.624 69.968 31.64 69.776 31.64 69.584C31.64 68.56 31.16 67.808 30.2 67.328C29.272 66.816 28.28 66.56 27.224 66.56C27.096 66.56 26.952 66.56 26.792 66.56C26.632 66.56 26.472 66.576 26.312 66.608C24.296 66.896 22.392 67.632 20.6 68.816C18.808 70 17.288 71.552 16.04 73.472C14.824 75.36 14.024 77.536 13.64 80C13.608 80.224 13.576 80.448 13.544 80.672C13.544 80.896 13.544 81.104 13.544 81.296C13.544 82.8 13.864 84.176 14.504 85.424C15.144 86.64 15.896 87.776 16.76 88.832C17.656 89.888 18.504 90.912 19.304 91.904C20.104 92.864 20.648 93.824 20.936 94.784C21.576 94.656 22.2 94.576 22.808 94.544C23.416 94.512 24.008 94.512 24.584 94.544C25.032 94.608 25.256 94.736 25.256 94.928C25.256 95.12 24.936 95.216 24.296 95.216C23.848 95.216 23.352 95.248 22.808 95.312C22.264 95.344 21.688 95.44 21.08 95.6C21.112 95.696 21.128 95.792 21.128 95.888C21.128 95.984 21.128 96.064 21.128 96.128C21.128 96.448 21.08 96.784 20.984 97.136C20.568 98.416 19.816 99.36 18.728 99.968C17.64 100.576 16.536 100.88 15.416 100.88C14.328 100.88 13.416 100.656 12.68 100.208C12.424 100.08 12.184 99.904 11.96 99.68C11.544 99.904 11.128 100.16 10.712 100.448C10.264 100.736 9.832 101.024 9.416 101.312C9.288 101.408 9.176 101.456 9.08 101.456ZM14.984 100.016C15.912 100.016 16.824 99.712 17.72 99.104C18.616 98.528 19.112 97.552 19.208 96.176C17.096 96.912 14.92 97.936 12.68 99.248C13.192 99.76 13.96 100.016 14.984 100.016ZM28.3303 105.68C28.0103 105.68 27.6743 105.472 27.3223 105.056C27.0023 104.672 26.6983 104.128 26.4103 103.424C25.9303 102.272 25.5943 101.056 25.4023 99.776C25.2103 98.528 25.1143 97.264 25.1143 95.984C25.1143 94.576 25.2103 93.2 25.4023 91.856C25.5943 90.512 25.8023 89.296 26.0263 88.208C26.1863 87.44 26.3783 86.624 26.6023 85.76C26.8263 84.896 27.0343 84.208 27.2263 83.696C27.0343 83.728 26.7303 83.84 26.3143 84.032C25.8983 84.224 25.4663 84.416 25.0183 84.608C24.6023 84.8 24.2343 84.896 23.9143 84.896C23.4343 84.896 23.1943 84.624 23.1943 84.08C23.1943 83.792 23.2903 83.536 23.4823 83.312C23.7063 83.088 23.9783 82.912 24.2983 82.784C24.9383 82.496 25.6423 82.288 26.4103 82.16C27.1783 82 27.6903 81.84 27.9463 81.68L29.1943 78.512C29.3223 78.192 29.5463 77.68 29.8663 76.976C30.2183 76.24 30.6183 75.456 31.0663 74.624C31.5463 73.792 32.0103 73.04 32.4583 72.368C32.8103 71.856 33.1463 71.456 33.4663 71.168C33.7863 70.848 34.1383 70.688 34.5223 70.688C35.0983 70.688 35.3863 70.912 35.3863 71.36C35.3863 71.616 35.2743 72 35.0503 72.512C34.8583 73.024 34.4903 73.696 33.9463 74.528C33.3383 75.488 32.7143 76.448 32.0743 77.408C31.4663 78.336 30.9383 79.312 30.4903 80.336C30.4583 80.464 30.3783 80.672 30.2503 80.96C30.1543 81.216 30.0743 81.376 30.0103 81.44L30.9703 81.296C31.2263 81.264 31.5143 81.248 31.8343 81.248C32.1543 81.216 32.5063 81.2 32.8903 81.2C33.4343 81.2 33.9463 81.232 34.4263 81.296C34.9383 81.328 35.3543 81.408 35.6743 81.536C35.8343 81.6 35.9783 81.68 36.1063 81.776C36.2663 81.84 36.3463 81.904 36.3463 81.968C36.3463 82.096 35.9303 82.16 35.0983 82.16C34.6183 82.16 33.9303 82.24 33.0343 82.4C32.1703 82.56 31.1783 82.816 30.0583 83.168C29.5143 83.328 29.1463 83.552 28.9543 83.84C28.7623 84.128 28.5063 84.816 28.1863 85.904C27.7063 87.632 27.3223 89.296 27.0343 90.896C26.7463 92.464 26.5223 94.064 26.3623 95.696C26.3303 96.016 26.2983 96.352 26.2663 96.704C26.2663 97.056 26.2663 97.44 26.2663 97.856C26.2663 98.944 26.3623 100.08 26.5543 101.264C26.7783 102.448 27.0983 103.472 27.5143 104.336C27.6103 104.528 27.7063 104.704 27.8023 104.864C27.9303 105.024 28.0743 105.136 28.2343 105.2C28.4583 105.296 28.5703 105.408 28.5703 105.536C28.5703 105.632 28.4903 105.68 28.3303 105.68ZM36.4888 98.624C35.3368 98.624 34.3288 97.952 33.4648 96.608C32.6328 95.232 32.2168 93.072 32.2168 90.128C32.2168 88.208 32.4568 86.672 32.9368 85.52C33.4168 84.336 34.0088 83.472 34.7128 82.928C35.4168 82.384 36.0888 82.112 36.7288 82.112C37.3688 82.112 37.9128 82.336 38.3608 82.784C38.8088 83.2 39.0328 83.808 39.0328 84.608C39.0328 85.376 38.8088 86.192 38.3608 87.056C37.9128 87.888 37.3688 88.656 36.7288 89.36C36.1208 90.032 35.5128 90.48 34.9048 90.704C34.7768 90.768 34.6168 90.8 34.4248 90.8C34.2968 90.8 34.2328 90.752 34.2328 90.656C34.2328 90.4 34.4888 90.112 35.0008 89.792C35.6408 89.344 36.2488 88.672 36.8248 87.776C37.4008 86.848 37.6888 86.032 37.6888 85.328C37.6888 84.912 37.5928 84.592 37.4008 84.368C37.2088 84.112 36.9848 83.984 36.7288 83.984C36.2488 83.984 35.7208 84.368 35.1448 85.136C34.6008 85.872 34.2008 87.152 33.9448 88.976C33.8808 89.488 33.8168 89.984 33.7528 90.464C33.7208 90.912 33.7048 91.36 33.7048 91.808C33.7048 93.6 33.9768 95.008 34.5208 96.032C35.0648 97.024 35.7848 97.52 36.6808 97.52C37.4488 97.52 38.3128 97.072 39.2728 96.176C40.2328 95.248 41.1768 93.808 42.1048 91.856C42.3288 91.344 42.5848 91.088 42.8728 91.088C43.0648 91.088 43.1608 91.216 43.1608 91.472C43.1608 91.696 43.0968 91.936 42.9688 92.192C42.1368 94.24 41.1288 95.824 39.9448 96.944C38.7608 98.064 37.6088 98.624 36.4888 98.624ZM41.8284 113.648C41.3484 113.648 40.9644 113.328 40.6764 112.688C40.3884 112.08 40.1804 111.344 40.0524 110.48C39.8924 109.616 39.8124 108.816 39.8124 108.08C39.8124 107.728 39.8284 107.216 39.8604 106.544C39.8924 105.872 39.9404 105.152 40.0044 104.384C40.0684 103.616 40.1324 102.896 40.1964 102.224C40.2604 101.552 40.3084 101.04 40.3404 100.688C40.6284 98.512 41.0604 96.416 41.6364 94.4C42.2124 92.352 42.8364 90.352 43.5084 88.4C43.5404 88.336 43.5724 88.24 43.6044 88.112C43.6684 87.984 43.7164 87.92 43.7484 87.92V87.776C43.4284 87.904 43.0124 88.208 42.5004 88.688C42.0204 89.168 41.6684 89.536 41.4444 89.792C41.2204 90.016 41.0124 90.256 40.8204 90.512C40.6284 90.736 40.4044 90.848 40.1484 90.848C39.8924 90.848 39.7644 90.704 39.7644 90.416C39.7644 90.064 39.9564 89.712 40.3404 89.36C40.6924 88.976 41.0924 88.624 41.5404 88.304C41.9884 87.952 42.4684 87.632 42.9804 87.344C43.5244 87.056 43.9084 86.848 44.1324 86.72C44.2284 86.656 44.2924 86.576 44.3244 86.48C44.3884 86.384 44.4364 86.288 44.4684 86.192C44.6924 85.84 44.9164 85.504 45.1404 85.184C45.3964 84.864 45.7324 84.64 46.1484 84.512C46.4364 84.544 46.7564 84.608 47.1084 84.704C47.4604 84.8 47.6684 85.024 47.7324 85.376C47.7324 85.504 47.7644 85.568 47.8284 85.568V85.616C47.9884 85.616 48.1804 85.6 48.4044 85.568C48.6604 85.504 48.9484 85.472 49.2684 85.472C50.5164 85.472 51.5244 85.792 52.2924 86.432C53.0604 87.072 53.4444 87.92 53.4444 88.976C53.4444 89.968 53.1564 91.04 52.5804 92.192C52.0044 93.312 51.3804 94.224 50.7084 94.928C49.6524 95.984 48.5324 96.912 47.3484 97.712C46.1964 98.48 45.2044 98.864 44.3724 98.864C43.8604 98.864 43.5084 98.72 43.3164 98.432C43.1564 98.176 43.0764 97.856 43.0764 97.472C43.0764 96.928 43.3164 96.384 43.7964 95.84C44.2764 95.296 44.7564 94.832 45.2364 94.448C45.7804 94 46.3404 93.584 46.9164 93.2C47.5244 92.816 48.0364 92.496 48.4524 92.24C48.6764 92.08 48.8844 91.936 49.0764 91.808C49.3004 91.68 49.4924 91.616 49.6524 91.616C49.7484 91.616 49.7964 91.664 49.7964 91.76C49.7964 91.824 49.6044 91.984 49.2204 92.24C48.8684 92.496 48.5644 92.72 48.3084 92.912C48.1164 93.072 47.7804 93.36 47.3004 93.776C46.8204 94.16 46.3084 94.608 45.7644 95.12C45.2524 95.6 44.8044 96.096 44.4204 96.608C44.0364 97.12 43.8444 97.568 43.8444 97.952C44.3564 97.952 44.9164 97.744 45.5244 97.328C46.1644 96.88 46.7884 96.368 47.3964 95.792C48.0364 95.216 48.5804 94.736 49.0284 94.352C49.4444 93.968 49.9404 93.44 50.5164 92.768C51.0924 92.096 51.6044 91.376 52.0524 90.608C52.5004 89.84 52.7244 89.136 52.7244 88.496C52.7244 87.664 52.4044 87.056 51.7644 86.672C51.1564 86.256 50.4204 86.048 49.5564 86.048C49.2684 86.048 48.9004 86.08 48.4524 86.144C48.0044 86.208 47.7324 86.272 47.6364 86.336C46.9324 87.424 46.2604 88.528 45.6204 89.648C44.9804 90.768 44.3884 91.92 43.8444 93.104C42.9484 95.024 42.2284 96.976 41.6844 98.96C41.1724 100.944 40.8364 103.088 40.6764 105.392C40.6444 105.936 40.5964 106.512 40.5324 107.12C40.5004 107.728 40.5004 108.336 40.5324 108.944C40.5644 109.264 40.6284 109.776 40.7244 110.48C40.8204 111.184 40.9804 111.824 41.2044 112.4C41.4284 112.976 41.7324 113.264 42.1164 113.264C42.1484 113.264 42.2124 113.264 42.3084 113.264C42.4044 113.264 42.4524 113.28 42.4524 113.312V113.456C42.2284 113.584 42.0204 113.648 41.8284 113.648ZM59.2501 106.4C58.5141 106.4 57.9541 106.096 57.5701 105.488C57.2181 104.88 57.0421 104.176 57.0421 103.376C57.0421 102.416 57.2181 101.312 57.5701 100.064C57.9541 98.848 58.4181 97.6 58.9621 96.32C59.5061 95.008 60.0661 93.744 60.6421 92.528C61.2501 91.312 61.7781 90.224 62.2261 89.264C62.7061 88.304 63.0261 87.568 63.1861 87.056C63.3781 86.48 63.4741 86.048 63.4741 85.76C63.4741 85.44 63.3621 85.28 63.1381 85.28C62.8821 85.28 62.4981 85.488 61.9861 85.904C61.5061 86.288 61.0261 86.72 60.5461 87.2C60.0981 87.68 59.7781 88.032 59.5861 88.256C58.5621 89.408 57.6341 90.688 56.8021 92.096C56.0021 93.504 55.5061 94.704 55.3141 95.696C55.2821 95.856 55.2181 96.144 55.1221 96.56C55.0581 96.976 54.9141 97.168 54.6901 97.136C54.3701 97.072 54.1461 96.88 54.0181 96.56C53.9221 96.208 53.8581 95.888 53.8261 95.6C53.8261 95.44 53.8101 95.28 53.7781 95.12C53.7781 94.928 53.7781 94.736 53.7781 94.544C53.7781 92.976 53.9541 91.2 54.3061 89.216C54.6581 87.232 55.1061 85.2 55.6501 83.12C56.2261 81.04 56.8341 79.104 57.4741 77.312C58.1141 75.52 58.7221 74.032 59.2981 72.848C59.5861 72.272 59.9061 71.728 60.2581 71.216C60.6101 70.672 60.9621 70.4 61.3141 70.4C61.5381 70.4 61.7301 70.512 61.8901 70.736C62.0821 70.96 62.1781 71.152 62.1781 71.312C62.1781 71.44 61.9541 71.952 61.5061 72.848C61.0901 73.712 60.5461 74.864 59.8741 76.304C59.2021 77.712 58.5141 79.328 57.8101 81.152C57.1381 82.976 56.5301 84.928 55.9861 87.008C55.4421 89.088 55.0741 91.2 54.8821 93.344C54.8821 93.376 54.8661 93.536 54.8341 93.824C54.8021 94.112 54.7701 94.4 54.7381 94.688C54.7381 94.976 54.7381 95.12 54.7381 95.12V95.072H54.7861C54.8501 94.688 54.9621 94.32 55.1221 93.968C55.3141 93.616 55.5061 93.28 55.6981 92.96C56.6581 91.04 57.8901 89.2 59.3941 87.44C60.1301 86.608 60.8981 85.888 61.6981 85.28C62.4981 84.64 63.3301 84.32 64.1941 84.32C64.5461 84.32 64.8501 84.416 65.1061 84.608C65.3621 84.8 65.4901 85.168 65.4901 85.712C65.4901 86.416 65.2501 87.248 64.7701 88.208C64.3221 89.136 63.7621 90.112 63.0901 91.136C62.4501 92.128 61.8581 93.072 61.3141 93.968C60.5781 95.216 59.9061 96.544 59.2981 97.952C58.7221 99.328 58.4341 100.768 58.4341 102.272C58.4341 102.72 58.4661 103.2 58.5301 103.712C58.6261 104.224 58.7701 104.656 58.9621 105.008C59.1861 105.392 59.4901 105.584 59.8741 105.584C60.1301 105.584 60.3701 105.504 60.5941 105.344C60.8501 105.216 61.0581 105.088 61.2181 104.96C61.5061 104.672 61.6981 104.528 61.7941 104.528C61.8901 104.528 61.9381 104.576 61.9381 104.672C61.9381 104.864 61.8581 105.04 61.6981 105.2C61.5381 105.392 61.3781 105.536 61.2181 105.632C60.9941 105.824 60.6901 106 60.3061 106.16C59.9541 106.32 59.6021 106.4 59.2501 106.4ZM69.3481 98.624C68.1961 98.624 67.1881 97.952 66.3241 96.608C65.4921 95.232 65.0761 93.072 65.0761 90.128C65.0761 88.208 65.3161 86.672 65.7961 85.52C66.2761 84.336 66.8681 83.472 67.5721 82.928C68.2761 82.384 68.9481 82.112 69.5881 82.112C70.2281 82.112 70.7721 82.336 71.2201 82.784C71.6681 83.2 71.8921 83.808 71.8921 84.608C71.8921 85.376 71.6681 86.192 71.2201 87.056C70.7721 87.888 70.2281 88.656 69.5881 89.36C68.9801 90.032 68.3721 90.48 67.7641 90.704C67.6361 90.768 67.4761 90.8 67.2841 90.8C67.1561 90.8 67.0921 90.752 67.0921 90.656C67.0921 90.4 67.3481 90.112 67.8601 89.792C68.5001 89.344 69.1081 88.672 69.6841 87.776C70.2601 86.848 70.5481 86.032 70.5481 85.328C70.5481 84.912 70.4521 84.592 70.2601 84.368C70.0681 84.112 69.8441 83.984 69.5881 83.984C69.1081 83.984 68.5801 84.368 68.0041 85.136C67.4601 85.872 67.0601 87.152 66.8041 88.976C66.7401 89.488 66.6761 89.984 66.6121 90.464C66.5801 90.912 66.5641 91.36 66.5641 91.808C66.5641 93.6 66.8361 95.008 67.3801 96.032C67.9241 97.024 68.6441 97.52 69.5401 97.52C70.3081 97.52 71.1721 97.072 72.1321 96.176C73.0921 95.248 74.0361 93.808 74.9641 91.856C75.1881 91.344 75.4441 91.088 75.7321 91.088C75.9241 91.088 76.0201 91.216 76.0201 91.472C76.0201 91.696 75.9561 91.936 75.8281 92.192C74.9961 94.24 73.9881 95.824 72.8041 96.944C71.6201 98.064 70.4681 98.624 69.3481 98.624ZM84.7678 98.624C84.3518 98.624 83.9838 98.368 83.6638 97.856C83.3438 97.312 83.1838 96.288 83.1838 94.784C83.1838 93.6 83.2798 92.304 83.4718 90.896C83.6638 89.456 83.8718 88.032 84.0958 86.624C84.3518 85.216 84.5758 83.968 84.7678 82.88C84.9598 81.76 85.0558 80.944 85.0558 80.432C85.0558 79.536 84.7838 79.088 84.2398 79.088C83.7278 79.088 83.1998 79.344 82.6558 79.856C82.1438 80.368 81.6478 80.992 81.1678 81.728C80.7198 82.464 80.3198 83.184 79.9678 83.888C79.6478 84.56 79.4398 85.056 79.3438 85.376C78.8958 86.624 78.5758 87.872 78.3838 89.12C78.1918 90.336 78.0958 91.6 78.0958 92.912C78.0958 93.456 78.1118 94.016 78.1438 94.592C78.2078 95.168 78.2558 95.76 78.2878 96.368C78.3518 96.688 78.2558 97.088 77.9998 97.568C77.7758 98.016 77.5038 98.24 77.1838 98.24C76.9598 98.24 76.7678 98.096 76.6078 97.808C76.4478 97.52 76.3358 97.264 76.2718 97.04C76.1438 96.656 76.0478 96.256 75.9838 95.84C75.9198 95.392 75.8558 95.008 75.7918 94.688C75.5678 93.376 75.3598 92.048 75.1678 90.704C74.9758 89.328 74.7038 88 74.3518 86.72C74.2558 86.368 74.1278 86 73.9678 85.616C73.8398 85.2 73.6318 84.864 73.3438 84.608C73.2797 84.544 73.1837 84.48 73.0557 84.416C72.9277 84.32 72.8637 84.24 72.8637 84.176C72.8637 84.048 73.0397 83.984 73.3918 83.984C73.7758 83.984 74.1598 84.176 74.5438 84.56C74.9278 84.944 75.2798 85.456 75.5998 86.096C75.9838 86.896 76.3038 87.744 76.5598 88.64C76.8478 89.536 77.0718 90.256 77.2318 90.8C77.4238 89.648 77.6318 88.624 77.8558 87.728C78.0798 86.96 78.3838 86.048 78.7678 84.992C79.1518 83.904 79.6318 82.848 80.2078 81.824C80.7838 80.768 81.4718 79.904 82.2718 79.232C83.0718 78.528 83.9998 78.176 85.0558 78.176C86.5918 78.176 87.3598 79.072 87.3598 80.864C87.3598 81.792 87.1998 82.816 86.8798 83.936C86.5598 85.024 86.2078 86.032 85.8238 86.96C85.4718 87.888 85.2318 88.528 85.1038 88.88C84.9438 89.328 84.7678 89.936 84.5758 90.704C84.4158 91.472 84.2718 92.272 84.1438 93.104C84.0478 93.936 83.9998 94.704 83.9998 95.408C83.9998 96.016 84.0638 96.528 84.1918 96.944C84.3518 97.328 84.5918 97.52 84.9118 97.52C85.2318 97.52 85.5198 97.376 85.7758 97.088C86.0318 96.768 86.2398 96.48 86.3998 96.224C86.5918 95.968 86.6878 95.92 86.6878 96.08C86.7518 96.56 86.5758 97.104 86.1598 97.712C85.7758 98.32 85.3118 98.624 84.7678 98.624ZM135.103 108.224C133.439 108.224 131.871 107.76 130.399 106.832C128.927 105.904 127.567 104.688 126.319 103.184C125.103 101.712 123.999 100.096 123.007 98.336C122.047 96.576 121.199 94.848 120.463 93.152C119.759 91.456 119.183 89.968 118.735 88.688L118.687 88.544C118.239 90.016 117.791 91.36 117.343 92.576C116.895 93.76 116.511 94.72 116.191 95.456C115.391 97.344 114.351 99.072 113.071 100.64C111.823 102.208 110.463 103.44 108.991 104.336C107.519 105.264 106.047 105.728 104.575 105.728C103.135 105.728 101.759 105.184 100.447 104.096C99.1669 103.04 98.0629 101.28 97.1349 98.816C96.8789 98.112 96.7029 97.392 96.6069 96.656C96.4789 95.92 96.4149 95.168 96.4149 94.4C96.4149 93.024 96.5749 91.664 96.8949 90.32C97.1829 88.976 97.5829 87.76 98.0949 86.672C98.4469 85.84 98.9429 84.96 99.5829 84.032C100.255 83.104 100.895 82.352 101.503 81.776C101.663 81.616 101.887 81.44 102.175 81.248C102.495 81.056 102.703 80.96 102.799 80.96C102.831 80.96 102.847 80.976 102.847 81.008C102.847 81.104 102.575 81.44 102.031 82.016C100.623 83.456 99.5989 85.184 98.9589 87.2C98.3189 89.216 97.9989 91.248 97.9989 93.296C97.9989 95.6 98.3349 97.664 99.0069 99.488C99.7429 101.536 100.591 102.976 101.551 103.808C102.511 104.64 103.535 105.056 104.623 105.056C105.647 105.056 106.671 104.736 107.695 104.096C108.719 103.488 109.679 102.688 110.575 101.696C111.311 100.896 112.063 99.76 112.831 98.288C113.631 96.848 114.399 95.2 115.135 93.344C115.903 91.488 116.591 89.536 117.199 87.488C117.967 85.024 118.575 82.544 119.023 80.048C119.503 77.52 119.743 75.232 119.743 73.184C119.743 71.776 119.615 70.528 119.359 69.44C119.103 68.352 118.703 67.472 118.159 66.8C117.839 66.448 117.487 66.272 117.103 66.272C116.719 66.272 116.335 66.432 115.951 66.752C115.375 67.168 114.847 67.824 114.367 68.72C113.919 69.616 113.519 70.624 113.167 71.744C112.815 72.864 112.543 74.016 112.351 75.2C112.159 76.384 112.063 77.488 112.063 78.512C112.063 79.248 112.127 79.92 112.255 80.528C112.383 81.136 112.559 81.616 112.783 81.968C113.071 82.384 113.375 82.592 113.695 82.592C113.823 82.592 113.935 82.576 114.031 82.544C114.159 82.512 114.255 82.496 114.319 82.496C114.479 82.496 114.559 82.544 114.559 82.64C114.559 82.736 114.431 82.832 114.175 82.928C113.951 83.024 113.663 83.072 113.311 83.072C113.055 83.072 112.799 83.024 112.543 82.928C111.839 82.64 111.327 82.096 111.007 81.296C110.719 80.464 110.575 79.504 110.575 78.416C110.575 77.136 110.751 75.776 111.103 74.336C111.487 72.896 111.999 71.536 112.639 70.256C113.279 68.976 113.999 67.936 114.799 67.136C115.599 66.304 116.431 65.888 117.295 65.888C117.903 65.888 118.511 66.144 119.119 66.656C119.951 67.36 120.543 68.352 120.895 69.632C121.247 70.88 121.423 72.288 121.423 73.856C121.423 75.712 121.215 77.728 120.799 79.904C120.415 82.048 119.951 84.112 119.407 86.096C120.687 83.76 122.223 81.648 124.015 79.76C125.839 77.84 127.839 76.32 130.015 75.2C132.223 74.048 134.527 73.472 136.927 73.472C137.567 73.472 138.223 73.52 138.895 73.616C139.599 73.712 140.287 73.872 140.959 74.096C141.279 74.192 141.439 74.432 141.439 74.816C141.439 75.104 141.343 75.36 141.151 75.584C140.991 75.808 140.767 75.872 140.479 75.776C139.391 75.456 138.255 75.296 137.071 75.296C135.311 75.296 133.567 75.648 131.839 76.352C130.111 77.024 128.463 77.952 126.895 79.136C125.327 80.288 123.887 81.616 122.575 83.12C121.295 84.592 120.223 86.144 119.359 87.776L119.311 87.92L119.503 88.352C119.919 89.28 120.495 90.352 121.231 91.568C121.967 92.752 122.799 94 123.727 95.312C124.687 96.624 125.663 97.888 126.655 99.104C127.647 100.352 128.623 101.472 129.583 102.464C130.543 103.456 131.407 104.224 132.175 104.768C132.751 105.184 133.423 105.6 134.191 106.016C134.991 106.464 135.775 106.688 136.543 106.688C137.599 106.688 138.303 106.256 138.655 105.392C139.039 104.528 139.231 103.648 139.231 102.752C139.231 101.728 139.071 100.72 138.751 99.728C138.431 98.736 137.983 97.824 137.407 96.992C137.311 96.832 137.263 96.736 137.263 96.704C137.263 96.608 137.311 96.56 137.407 96.56C137.567 96.56 137.759 96.672 137.983 96.896C138.623 97.664 139.135 98.56 139.519 99.584C139.903 100.608 140.095 101.632 140.095 102.656C140.095 104.224 139.647 105.536 138.751 106.592C137.855 107.68 136.639 108.224 135.103 108.224ZM134.429 81.968C134.141 81.968 133.933 81.824 133.805 81.536C133.709 81.216 133.661 80.992 133.661 80.864C133.661 80.352 133.805 79.872 134.093 79.424C134.413 78.944 134.765 78.688 135.149 78.656H135.293C135.677 78.656 135.933 78.752 136.061 78.944C136.221 79.104 136.301 79.312 136.301 79.568C136.301 80.048 136.093 80.576 135.677 81.152C135.261 81.696 134.845 81.968 134.429 81.968ZM131.981 99.152C130.893 99.152 130.157 98.736 129.773 97.904C129.389 97.072 129.197 96.112 129.197 95.024C129.197 93.936 129.309 92.8 129.533 91.616C129.789 90.4 130.061 89.296 130.349 88.304C130.669 87.312 130.909 86.608 131.069 86.192C131.421 85.456 131.773 84.832 132.125 84.32C132.477 83.776 132.861 83.504 133.277 83.504C133.565 83.504 133.773 83.616 133.901 83.84C134.061 84.032 134.141 84.288 134.141 84.608C134.141 85.248 133.965 85.904 133.613 86.576C133.261 87.216 132.941 87.824 132.653 88.4C132.013 89.712 131.501 90.88 131.117 91.904C130.765 92.928 130.589 94.208 130.589 95.744C130.589 96.736 130.685 97.456 130.877 97.904C131.101 98.352 131.405 98.576 131.789 98.576C132.301 98.576 132.893 98.288 133.565 97.712C134.237 97.104 134.925 96.304 135.629 95.312C136.333 94.32 136.957 93.248 137.501 92.096C137.853 91.36 138.125 90.992 138.317 90.992C138.445 90.992 138.509 91.12 138.509 91.376C138.509 91.728 138.365 92.24 138.077 92.912C137.821 93.552 137.501 94.208 137.117 94.88C136.765 95.552 136.429 96.08 136.109 96.464C135.565 97.168 134.941 97.792 134.237 98.336C133.533 98.88 132.781 99.152 131.981 99.152ZM147.44 98.624C147.024 98.624 146.656 98.368 146.336 97.856C146.016 97.312 145.856 96.288 145.856 94.784C145.856 93.6 145.952 92.304 146.144 90.896C146.336 89.456 146.544 88.032 146.768 86.624C147.024 85.216 147.248 83.968 147.44 82.88C147.632 81.76 147.728 80.944 147.728 80.432C147.728 79.536 147.456 79.088 146.912 79.088C146.4 79.088 145.872 79.344 145.328 79.856C144.816 80.368 144.32 80.992 143.84 81.728C143.392 82.464 142.992 83.184 142.64 83.888C142.32 84.56 142.112 85.056 142.016 85.376C141.568 86.624 141.248 87.872 141.056 89.12C140.864 90.336 140.768 91.6 140.768 92.912C140.768 93.456 140.784 94.016 140.816 94.592C140.88 95.168 140.928 95.76 140.96 96.368C141.024 96.688 140.928 97.088 140.672 97.568C140.448 98.016 140.176 98.24 139.856 98.24C139.632 98.24 139.44 98.096 139.28 97.808C139.12 97.52 139.008 97.264 138.944 97.04C138.816 96.656 138.72 96.256 138.656 95.84C138.592 95.392 138.528 95.008 138.464 94.688C138.24 93.376 138.032 92.048 137.84 90.704C137.648 89.328 137.376 88 137.024 86.72C136.928 86.368 136.8 86 136.64 85.616C136.512 85.2 136.304 84.864 136.016 84.608C135.952 84.544 135.856 84.48 135.728 84.416C135.6 84.32 135.536 84.24 135.536 84.176C135.536 84.048 135.712 83.984 136.064 83.984C136.448 83.984 136.832 84.176 137.216 84.56C137.6 84.944 137.952 85.456 138.272 86.096C138.656 86.896 138.976 87.744 139.232 88.64C139.52 89.536 139.744 90.256 139.904 90.8C140.096 89.648 140.304 88.624 140.528 87.728C140.752 86.96 141.056 86.048 141.44 84.992C141.824 83.904 142.304 82.848 142.88 81.824C143.456 80.768 144.144 79.904 144.944 79.232C145.744 78.528 146.672 78.176 147.728 78.176C149.264 78.176 150.032 79.072 150.032 80.864C150.032 81.792 149.872 82.816 149.552 83.936C149.232 85.024 148.88 86.032 148.496 86.96C148.144 87.888 147.904 88.528 147.776 88.88C147.616 89.328 147.44 89.936 147.248 90.704C147.088 91.472 146.944 92.272 146.816 93.104C146.72 93.936 146.672 94.704 146.672 95.408C146.672 96.016 146.736 96.528 146.864 96.944C147.024 97.328 147.264 97.52 147.584 97.52C147.904 97.52 148.192 97.376 148.448 97.088C148.704 96.768 148.912 96.48 149.072 96.224C149.264 95.968 149.36 95.92 149.36 96.08C149.424 96.56 149.248 97.104 148.832 97.712C148.448 98.32 147.984 98.624 147.44 98.624ZM151.286 117.056C150.006 117.056 148.918 116.672 148.022 115.904C147.094 115.168 146.63 114.176 146.63 112.928C146.63 111.68 147.222 110.224 148.406 108.56C149.59 106.896 151.59 105.168 154.406 103.376C155.046 102.928 155.718 102.528 156.422 102.176C157.158 101.824 157.91 101.456 158.678 101.072C158.87 100.976 159.014 100.928 159.11 100.928C159.238 100.928 159.302 100.976 159.302 101.072C159.302 101.296 159.078 101.536 158.63 101.792C157.094 102.56 155.782 103.36 154.694 104.192C153.638 105.056 152.662 106.064 151.766 107.216C151.286 107.824 150.774 108.528 150.23 109.328C149.718 110.16 149.286 110.976 148.934 111.776C148.55 112.576 148.358 113.296 148.358 113.936C148.358 115.28 148.998 115.952 150.278 115.952C150.822 115.952 151.462 115.792 152.198 115.472C152.934 115.184 153.734 114.704 154.598 114.032C156.774 112.336 158.31 110.448 159.206 108.368C160.102 106.32 160.55 103.92 160.55 101.168C160.55 99.12 160.358 96.848 159.974 94.352C159.622 91.792 159.43 89.344 159.398 87.008C159.238 88 158.966 89.2 158.582 90.608C158.23 91.984 157.798 93.296 157.286 94.544C156.774 95.792 156.198 96.864 155.558 97.76C154.95 98.656 154.166 99.104 153.206 99.104C152.534 99.104 151.958 98.768 151.478 98.096C151.03 97.424 150.806 96.4 150.806 95.024C150.806 94 150.982 92.784 151.334 91.376C151.686 89.968 152.166 88.608 152.774 87.296C153.382 85.952 154.054 84.848 154.79 83.984C155.558 83.088 156.326 82.64 157.094 82.64C157.638 82.64 158.022 82.864 158.246 83.312C158.502 83.728 158.63 84.16 158.63 84.608C158.63 84.96 158.566 85.264 158.438 85.52C158.31 85.776 158.118 85.904 157.862 85.904C157.606 85.872 157.414 85.76 157.286 85.568C157.19 85.344 157.094 85.136 156.998 84.944C156.902 84.72 156.726 84.608 156.47 84.608C155.958 84.608 155.462 84.944 154.982 85.616C154.534 86.256 154.118 87.104 153.734 88.16C153.382 89.184 153.094 90.272 152.87 91.424C152.678 92.576 152.582 93.632 152.582 94.592C152.582 95.488 152.678 96.224 152.87 96.8C153.094 97.376 153.43 97.68 153.878 97.712C154.422 97.744 154.95 97.392 155.462 96.656C155.974 95.92 156.438 94.976 156.854 93.824C157.302 92.672 157.686 91.456 158.006 90.176C158.358 88.864 158.646 87.648 158.87 86.528C159.126 85.376 159.302 84.48 159.398 83.84C159.654 82.144 159.894 81.072 160.118 80.624C160.342 80.144 160.582 79.904 160.838 79.904C161.062 79.904 161.254 80.112 161.414 80.528C161.606 80.944 161.702 81.328 161.702 81.68C161.702 81.936 161.686 82.112 161.654 82.208C161.27 84.32 161.078 86.48 161.078 88.688C161.078 89.616 161.11 90.544 161.174 91.472C161.238 92.368 161.318 93.264 161.414 94.16C161.606 96.016 161.702 97.744 161.702 99.344C161.702 102.608 161.366 105.36 160.694 107.6C160.054 109.872 159.206 111.696 158.15 113.072C157.094 114.48 155.958 115.488 154.742 116.096C153.558 116.736 152.406 117.056 151.286 117.056Z" fill="black"/>
</svg>
